# File created by Blade
# Date/Time:  Wed Jan 21 16:09:38 2015
# Frame Rate: 120.000 fps
#------------------------------------------------------
:FULLY-SPECIFIED
:DEGREES
496
root 12.115449 33.108420 -21.612335 -189.557986 75.184914 -253.601334
Spine 66.074592 -12.296978 1.047565
Head -32.733436 -5.203033 8.217839
LeftShoulder -6.393993 -34.733286 21.877104
LeftArm -37.293031 -7.336110 -22.478617
LeftForeArm -36.554081 0.000000 -5.008521
LeftHand -10.394937 -0.000000 1.554011
LeftHandThumb1 -26.253704 0.000000 33.147579
RightShoulder -10.678623 -1.447722 -12.222681
RightArm -39.626917 46.965899 14.570559
RightForeArm 14.428036 -0.000000 10.327000
RightHand -20.253029 -0.000000 -15.694848
RightHandThumb1 -24.326973 -0.000000 -32.862282
LeftUpLeg -39.365557 -11.215586 -19.135293
LeftLeg -15.597952 -0.000000 0.000000
LeftFoot -7.258850 26.959676 15.608929
LeftToeBase -139.205187 -0.000000 0.000000
RightUpLeg -87.793535 -8.573924 -9.405221
RightLeg -1.349771 -0.000000 0.000000
RightFoot 9.646931 -27.224976 0.499701
RightToeBase 28.189977 -0.000000 -0.000000
497
root 12.119600 33.107486 -21.603863 -189.457636 75.197882 -253.602870
Spine 66.181099 -12.343136 1.080411
Head -32.869705 -5.141326 8.154460
LeftShoulder -6.414055 -34.674803 21.882509
LeftArm -37.312307 -7.385273 -22.458087
LeftForeArm -36.637866 -0.000000 -4.989673
LeftHand -10.364484 0.000000 1.484063
LeftHandThumb1 -26.253704 0.000000 33.147579
RightShoulder -10.620005 -1.387696 -12.237539
RightArm -39.703228 46.905955 14.484981
RightForeArm 14.457894 -0.000000 10.408260
RightHand -20.227603 0.000000 -15.693753
RightHandThumb1 -24.326973 -0.000000 -32.862282
LeftUpLeg -39.502608 -11.310160 -19.008082
LeftLeg -15.550153 -0.000000 0.000000
LeftFoot -7.261764 27.040662 15.652263
LeftToeBase -139.121400 -0.000000 0.000000
RightUpLeg -87.854827 -8.568707 -9.373549
RightLeg -1.425529 -0.000000 0.000000
RightFoot 9.672166 -27.204776 0.479850
RightToeBase 28.240071 -0.000000 -0.000000
498
root 12.127821 33.105042 -21.595545 -189.379561 75.211799 -253.590278
Spine 66.330746 -12.381584 1.121038
Head -33.031473 -5.106898 8.090216
LeftShoulder -6.473918 -34.728769 21.909294
LeftArm -37.297153 -7.298197 -22.478271
LeftForeArm -36.715940 -0.000000 -4.982133
LeftHand -10.435869 -0.000000 1.401044
LeftHandThumb1 -26.253704 0.000000 33.147579
RightShoulder -10.533146 -1.321924 -12.257670
RightArm -39.772240 46.789215 14.432642
RightForeArm 14.628106 0.000000 10.410838
RightHand -20.089953 0.000000 -15.642736
RightHandThumb1 -24.326973 -0.000000 -32.862282
LeftUpLeg -39.589745 -11.387344 -18.890545
LeftLeg -15.527239 -0.000000 0.000000
LeftFoot -7.252651 27.142043 15.675735
LeftToeBase -139.113506 -0.000000 0.000000
RightUpLeg -87.867541 -8.557937 -9.349662
RightLeg -1.526036 -0.000000 0.000000
RightFoot 9.693106 -27.179314 0.424960
RightToeBase 28.367400 -0.000000 -0.000000
499
root 12.139880 33.104316 -21.587784 -189.221783 75.259361 -253.465456
Spine 66.516203 -12.352121 1.272762
Head -33.227995 -5.155955 8.083725
LeftShoulder -6.378264 -34.897746 21.914030
LeftArm -37.437967 -7.254045 -22.430562
LeftForeArm -36.716666 -0.000000 -4.929272
LeftHand -10.449066 0.000000 1.387083
LeftHandThumb1 -26.253704 0.000000 33.147579
RightShoulder -10.581801 -1.228529 -12.261128
RightArm -39.807023 46.722005 14.341205
RightForeArm 14.594563 -0.000000 10.429700
RightHand -20.080323 -0.000000 -15.762555
RightHandThumb1 -24.326973 -0.000000 -32.862282
LeftUpLeg -39.640477 -11.425711 -18.745036
LeftLeg -15.524606 -0.000000 0.000000
LeftFoot -7.227546 27.223051 15.717717
LeftToeBase -138.999648 -0.000000 0.000000
RightUpLeg -87.838590 -8.514780 -9.241668
RightLeg -1.653497 -0.000000 0.000000
RightFoot 9.720043 -27.175494 0.569795
RightToeBase 28.283307 -0.000000 -0.000000
500
root 12.146551 33.103496 -21.579573 -189.095599 75.275964 -253.412850
Spine 66.643725 -12.390400 1.343314
Head -33.366009 -5.141116 8.014240
LeftShoulder -6.396794 -34.934101 21.913341
LeftArm -37.425097 -7.232923 -22.381830
LeftForeArm -36.829523 -0.000000 -4.978629
LeftHand -10.385516 -0.000000 1.350841
LeftHandThumb1 -26.253704 0.000000 33.147579
RightShoulder -10.567721 -1.274194 -12.294660
RightArm -39.780120 46.787319 14.342919
RightForeArm 14.566908 -0.000000 10.423910
RightHand -19.951307 -0.000000 -15.784990
RightHandThumb1 -24.326973 -0.000000 -32.862282
LeftUpLeg -39.738201 -11.500771 -18.617287
LeftLeg -15.498969 -0.000000 0.000000
LeftFoot -7.205191 27.291186 15.762069
LeftToeBase -138.968182 -0.000000 0.000000
RightUpLeg -87.868965 -8.504984 -9.145947
RightLeg -1.744302 -0.000000 0.000000
RightFoot 9.727912 -27.050789 0.356812
RightToeBase 28.524410 -0.000000 -0.000000
